<?xml version="1.0" encoding="UTF-8"?>
<svg xmlns="http://www.w3.org/2000/svg" xmlns:xlink="http://www.w3.org/1999/xlink"
     width="1080" height="1080" viewBox="0 0 1080 1080">
  <title>Icon grid</title>

  <rect id="page-background" width="1080" height="1080" fill="#ffffff"/>
  <rect id="00000000-0000-4000-8000-000000000023" data-name="rect" data-role="decoration" opacity="1" x="100" y="300" width="277.3333333333333" height="227.4133333333333" rx="28" fill="#1a3c8f"/>
  <rect id="00000000-0000-4000-8000-000000000026" data-name="rect" data-role="decoration" opacity="1" x="401.3333333333333" y="300" width="277.3333333333333" height="227.4133333333333" rx="28" fill="#1a3c8f"/>
  <rect id="00000000-0000-4000-8000-000000000029" data-name="rect" data-role="decoration" opacity="1" x="702.6666666666666" y="300" width="277.3333333333333" height="227.4133333333333" rx="28" fill="#1a3c8f"/>
  <rect id="00000000-0000-4000-8000-00000000002c" data-name="rect" data-role="decoration" opacity="1" x="100" y="551.4133333333333" width="277.3333333333333" height="227.4133333333333" rx="28" fill="#1a3c8f"/>
  <rect id="00000000-0000-4000-8000-00000000002f" data-name="rect" data-role="decoration" opacity="1" x="401.3333333333333" y="551.4133333333333" width="277.3333333333333" height="227.4133333333333" rx="28" fill="#1a3c8f"/>
  <rect id="00000000-0000-4000-8000-000000000032" data-name="rect" data-role="decoration" opacity="1" x="702.6666666666666" y="551.4133333333333" width="277.3333333333333" height="227.4133333333333" rx="28" fill="#1a3c8f"/>
  <text id="00000000-0000-4000-8000-000000000022" data-name="headline" data-role="headline" opacity="1" text-anchor="start" font-family="Arial" font-size="56" font-weight="800" font-style="normal" fill="#101418">
    <tspan x="100" y="159">Everything a product launch</tspan>
    <tspan x="100" dy="64.39999999999999">touches</tspan>
  </text>
  <g id="00000000-0000-4000-8000-000000000024" data-name="icon:compass" data-role="icon" opacity="1" data-icon="lucide/compass" transform="translate(202.66666666666666,334)">
    <svg width="72" height="72" viewBox="0 0 24 24" fill="none" stroke="#ffffff" stroke-width="2" stroke-linecap="round" stroke-linejoin="round">
  <circle cx="12" cy="12" r="10" />
  <path d="m16.24 7.76-1.804 5.411a2 2 0 0 1-1.265 1.265L7.76 16.24l1.804-5.411a2 2 0 0 1 1.265-1.265z" />
</svg>
  </g>
  <text id="00000000-0000-4000-8000-000000000025" data-name="caption" data-role="caption" opacity="1" text-anchor="middle" font-family="Arial" font-size="24" font-weight="700" font-style="normal" fill="#ffffff">
    <tspan x="238.66666666666666" y="473.6133333333333">Positioning</tspan>
  </text>
  <g id="00000000-0000-4000-8000-000000000027" data-name="icon:tag" data-role="icon" opacity="1" data-icon="lucide/tag" transform="translate(504,334)">
    <svg width="72" height="72" viewBox="0 0 24 24" fill="none" stroke="#ffffff" stroke-width="2" stroke-linecap="round" stroke-linejoin="round">
  <path d="M12.586 2.586A2 2 0 0 0 11.172 2H4a2 2 0 0 0-2 2v7.172a2 2 0 0 0 .586 1.414l8.704 8.704a2.426 2.426 0 0 0 3.42 0l6.58-6.58a2.426 2.426 0 0 0 0-3.42z" />
  <circle cx="7.5" cy="7.5" r=".5" fill="#ffffff" />
</svg>
  </g>
  <text id="00000000-0000-4000-8000-000000000028" data-name="caption" data-role="caption" opacity="1" text-anchor="middle" font-family="Arial" font-size="24" font-weight="700" font-style="normal" fill="#ffffff">
    <tspan x="540" y="473.6133333333333">Pricing</tspan>
  </text>
  <g id="00000000-0000-4000-8000-00000000002a" data-name="icon:graduation-cap" data-role="icon" opacity="1" data-icon="lucide/graduation-cap" transform="translate(805.3333333333333,334)">
    <svg width="72" height="72" viewBox="0 0 24 24" fill="none" stroke="#ffffff" stroke-width="2" stroke-linecap="round" stroke-linejoin="round">
  <path d="M21.42 10.922a1 1 0 0 0-.019-1.838L12.83 5.18a2 2 0 0 0-1.66 0L2.6 9.08a1 1 0 0 0 0 1.832l8.57 3.908a2 2 0 0 0 1.66 0z" />
  <path d="M22 10v6" />
  <path d="M6 12.5V16a6 3 0 0 0 12 0v-3.5" />
</svg>
  </g>
  <text id="00000000-0000-4000-8000-00000000002b" data-name="caption" data-role="caption" opacity="1" text-anchor="middle" font-family="Arial" font-size="24" font-weight="700" font-style="normal" fill="#ffffff">
    <tspan x="841.3333333333333" y="473.6133333333333">Enablement</tspan>
  </text>
  <g id="00000000-0000-4000-8000-00000000002d" data-name="icon:book-open" data-role="icon" opacity="1" data-icon="lucide/book-open" transform="translate(202.66666666666666,585.4133333333333)">
    <svg width="72" height="72" viewBox="0 0 24 24" fill="none" stroke="#ffffff" stroke-width="2" stroke-linecap="round" stroke-linejoin="round">
  <path d="M12 7v14" />
  <path d="M3 18a1 1 0 0 1-1-1V4a1 1 0 0 1 1-1h5a4 4 0 0 1 4 4 4 4 0 0 1 4-4h5a1 1 0 0 1 1 1v13a1 1 0 0 1-1 1h-6a3 3 0 0 0-3 3 3 3 0 0 0-3-3z" />
</svg>
  </g>
  <text id="00000000-0000-4000-8000-00000000002e" data-name="caption" data-role="caption" opacity="1" text-anchor="middle" font-family="Arial" font-size="24" font-weight="700" font-style="normal" fill="#ffffff">
    <tspan x="238.66666666666666" y="725.0266666666666">Docs</tspan>
  </text>
  <g id="00000000-0000-4000-8000-000000000030" data-name="icon:life-buoy" data-role="icon" opacity="1" data-icon="lucide/life-buoy" transform="translate(504,585.4133333333333)">
    <svg width="72" height="72" viewBox="0 0 24 24" fill="none" stroke="#ffffff" stroke-width="2" stroke-linecap="round" stroke-linejoin="round">
  <circle cx="12" cy="12" r="10" />
  <path d="m4.93 4.93 4.24 4.24" />
  <path d="m14.83 9.17 4.24-4.24" />
  <path d="m14.83 14.83 4.24 4.24" />
  <path d="m9.17 14.83-4.24 4.24" />
  <circle cx="12" cy="12" r="4" />
</svg>
  </g>
  <text id="00000000-0000-4000-8000-000000000031" data-name="caption" data-role="caption" opacity="1" text-anchor="middle" font-family="Arial" font-size="24" font-weight="700" font-style="normal" fill="#ffffff">
    <tspan x="540" y="725.0266666666666">Support</tspan>
  </text>
  <g id="00000000-0000-4000-8000-000000000033" data-name="icon:bar-chart-3" data-role="icon" opacity="1" data-icon="lucide/bar-chart-3" transform="translate(805.3333333333333,585.4133333333333)">
    <svg width="72" height="72" viewBox="0 0 24 24" fill="none" stroke="#ffffff" stroke-width="2" stroke-linecap="round" stroke-linejoin="round">
  <path d="M3 3v16a2 2 0 0 0 2 2h16" />
  <path d="M18 17V9" />
  <path d="M13 17V5" />
  <path d="M8 17v-3" />
</svg>
  </g>
  <text id="00000000-0000-4000-8000-000000000034" data-name="caption" data-role="caption" opacity="1" text-anchor="middle" font-family="Arial" font-size="24" font-weight="700" font-style="normal" fill="#ffffff">
    <tspan x="841.3333333333333" y="725.0266666666666">Analytics</tspan>
  </text>
</svg>