<?xml version="1.0" encoding="UTF-8"?>
<svg xmlns="http://www.w3.org/2000/svg" xmlns:xlink="http://www.w3.org/1999/xlink"
     width="1080" height="1350" viewBox="0 0 1080 1350">
  <title>The insight</title>

  <rect id="page-background" width="1080" height="1350" fill="#ffffff"/>
  <rect id="00000000-0000-4000-8000-000000000066" data-name="rect" data-role="decoration" opacity="1" x="100" y="130" width="150" height="150" rx="36" fill="#1a3c8f"/>
  <g id="00000000-0000-4000-8000-000000000067" data-name="icon:lightbulb" data-role="icon" opacity="1" data-icon="lucide/lightbulb" transform="translate(137,167)">
    <svg width="76" height="76" viewBox="0 0 24 24" fill="none" stroke="#ffffff" stroke-width="2" stroke-linecap="round" stroke-linejoin="round">
  <path d="M15 14c.2-1 .7-1.7 1.5-2.5 1-.9 1.5-2.2 1.5-3.5A6 6 0 0 0 6 8c0 1 .2 2.2 1.5 3.5.7.7 1.3 1.5 1.5 2.5" />
  <path d="M9 18h6" />
  <path d="M10 22h4" />
</svg>
  </g>
  <text id="00000000-0000-4000-8000-000000000068" data-name="caption" data-role="caption" opacity="1" text-anchor="start" font-family="Arial" font-size="26" font-weight="700" font-style="normal" fill="#1a3c8f">
    <tspan x="290" y="204.05">THE INSIGHT</tspan>
  </text>
  <text id="00000000-0000-4000-8000-000000000069" data-name="headline" data-role="headline" opacity="1" text-anchor="start" font-family="Arial" font-size="60" font-weight="700" font-style="normal" fill="#101418">
    <tspan x="100" y="454">Audiences follow opinions,</tspan>
    <tspan x="100" dy="72">not logos</tspan>
  </text>
  <text id="00000000-0000-4000-8000-00000000006a" data-name="body" data-role="body" opacity="1" text-anchor="start" font-family="Arial" font-size="34" font-weight="400" font-style="normal" fill="#101418">
    <tspan x="100" y="714.85">The accounts that grow take positions and</tspan>
    <tspan x="100" dy="49.3">defend them consistently.</tspan>
  </text>
  <text id="00000000-0000-4000-8000-00000000006b" data-name="caption" data-role="caption" opacity="1" text-anchor="end" font-family="Arial" font-size="24" font-weight="400" font-style="normal" fill="#1a3c8f">
    <tspan x="980" y="122.2">3 / 5</tspan>
  </text>
</svg>